<svg width="14" height="24" viewBox="0 0 14 24" fill="none" xmlns="http://www.w3.org/2000/svg">
<path d="M13.1079 0.572754H-0.18439C-0.592759 0.572754 -0.922852 0.889454 -0.922852 1.28126V5.53227C-0.922852 5.92407 -0.592759 6.24077 -0.18439 6.24077H0.554072V22.5363C0.554072 22.9281 0.884164 23.2448 1.29253 23.2448H11.631C12.0394 23.2448 12.3695 22.9281 12.3695 22.5363V19.7023V9.07478V6.24077H13.1079C13.5163 6.24077 13.8464 5.92407 13.8464 5.53227V1.28126C13.8464 0.889454 13.5163 0.572754 13.1079 0.572754ZM4.98484 14.0343V12.6173H9.41561V11.2003H4.98484V9.78328H10.8925V18.9938H4.98484V15.4513H6.46176V14.0343H4.98484ZM10.8925 8.36628H4.24638C3.83801 8.36628 3.50792 8.68298 3.50792 9.07478V19.7023C3.50792 20.0941 3.83801 20.4108 4.24638 20.4108H10.8925V21.8278H2.03099V6.24077H10.8925V8.36628ZM12.3695 4.82377H11.631H1.29253H0.554072V1.98976H12.3695V4.82377Z" fill="#2B7FFF"/>
</svg>
